<svg viewBox="0 0 800 800" xmlns="http://www.w3.org/2000/svg">
  <defs>
    <radialGradient id="bgGrad" cx="48%" cy="34%" r="80%">
      <stop offset="0%" stop-color="#EFEAF5"/>
      <stop offset="100%" stop-color="#F9F9FB"/>
    </radialGradient>
    <filter id="soft" x="-30%" y="-30%" width="160%" height="160%">
      <feGaussianBlur in="SourceGraphic" stdDeviation="14"/>
    </filter>
  </defs>
  <rect width="800" height="800" fill="url(#bgGrad)"/>
  <ellipse cx="416.0" cy="548.0" rx="272.0" ry="33.6" fill="#512B71" opacity="0.38" filter="url(#soft)"/>
  <g transform="translate(40,200) scale(1.0)">
<defs><clipPath id="clip21547"><path d="M58,318 C30,308 22,240 26,170 C29,118 36,166 60,114 C100,90 168,92 236,114 C296,132 350,68 430,96 C500,120 566,140 616,168 C656,190 682,220 690,256 C696,280 692,300 678,316 L58,318 Z"/></clipPath></defs>

    <path d="M22,314
             C22,306 30,300 42,300
             L672,300
             C692,300 706,308 708,320
             C710,336 702,352 682,358
             L48,358
             C30,358 20,344 22,326 Z" fill="#F5F5F7"/>
<rect x="34" y="298" width="640" height="9" rx="4.5" fill="#F87171" opacity="0.9"/>
<path d="M58,318 C30,308 22,240 26,170 C29,118 36,166 60,114 C100,90 168,92 236,114 C296,132 350,68 430,96 C500,120 566,140 616,168 C656,190 682,220 690,256 C696,280 692,300 678,316 L58,318 Z" fill="#111625"/>
<g clip-path="url(#clip21547)">
<ellipse cx="70" cy="246" rx="60" ry="130" fill="#512B71" opacity="0.9"/>
<ellipse cx="660" cy="256" rx="86" ry="92.0" fill="#F87171" opacity="0.88"/>
<line x1="160" y1="130" x2="134" y2="300" stroke="#512B71" stroke-width="2" opacity="0.22"/>
<line x1="160" y1="130" x2="186" y2="300" stroke="#512B71" stroke-width="2" opacity="0.22"/>
<line x1="218" y1="130" x2="192" y2="300" stroke="#512B71" stroke-width="2" opacity="0.22"/>
<line x1="218" y1="130" x2="244" y2="300" stroke="#512B71" stroke-width="2" opacity="0.22"/>
<line x1="276" y1="130" x2="250" y2="300" stroke="#512B71" stroke-width="2" opacity="0.22"/>
<line x1="276" y1="130" x2="302" y2="300" stroke="#512B71" stroke-width="2" opacity="0.22"/>
<line x1="334" y1="130" x2="308" y2="300" stroke="#512B71" stroke-width="2" opacity="0.22"/>
<line x1="334" y1="130" x2="360" y2="300" stroke="#512B71" stroke-width="2" opacity="0.22"/>
<line x1="392" y1="130" x2="366" y2="300" stroke="#512B71" stroke-width="2" opacity="0.22"/>
<line x1="392" y1="130" x2="418" y2="300" stroke="#512B71" stroke-width="2" opacity="0.22"/>
<line x1="450" y1="130" x2="424" y2="300" stroke="#512B71" stroke-width="2" opacity="0.22"/>
<line x1="450" y1="130" x2="476" y2="300" stroke="#512B71" stroke-width="2" opacity="0.22"/>
<line x1="508" y1="130" x2="482" y2="300" stroke="#512B71" stroke-width="2" opacity="0.22"/>
<line x1="508" y1="130" x2="534" y2="300" stroke="#512B71" stroke-width="2" opacity="0.22"/>
<path d="M110,236 C230,266 380,262 566,196" stroke="#F87171" stroke-width="18" fill="none" stroke-linecap="round" opacity="0.92"/>

        <path d="M228,98
                 C258,68 314,68 344,98
                 L354,224 C314,240 258,240 220,224 Z" fill="#512B71"/>
<line x1="224" y1="126" x2="362" y2="104" stroke="#F5F5F7" stroke-width="5" stroke-linecap="round" opacity="0.85"/>
<circle cx="224" cy="126" r="4" fill="#F87171"/>
<circle cx="362" cy="104" r="4" fill="#F87171"/>
<line x1="220" y1="152" x2="366" y2="130" stroke="#F5F5F7" stroke-width="5" stroke-linecap="round" opacity="0.85"/>
<circle cx="220" cy="152" r="4" fill="#F87171"/>
<circle cx="366" cy="130" r="4" fill="#F87171"/>
<line x1="216" y1="178" x2="370" y2="156" stroke="#F5F5F7" stroke-width="5" stroke-linecap="round" opacity="0.85"/>
<circle cx="216" cy="178" r="4" fill="#F87171"/>
<circle cx="370" cy="156" r="4" fill="#F87171"/>
<line x1="212" y1="204" x2="374" y2="182" stroke="#F5F5F7" stroke-width="5" stroke-linecap="round" opacity="0.85"/>
<circle cx="212" cy="204" r="4" fill="#F87171"/>
<circle cx="374" cy="182" r="4" fill="#F87171"/>
</g>
  </g>
</svg>